HIERARCHY
ROOT Hips
{
	OFFSET 0.000000 0.000000 0.000000
	CHANNELS 6 Xposition Yposition Zposition Zrotation Yrotation Xrotation 
	JOINT LeftUpLeg_virtual
	{
		OFFSET 0.000000 0.000000 0.000000
		CHANNELS 3 Zrotation Yrotation Xrotation
		JOINT LeftUpLeg
		{
			OFFSET 8.479694 -4.795517 -0.379053
			CHANNELS 3 Zrotation Yrotation Xrotation
			JOINT LeftLeg
			{
				OFFSET 0.485052 -32.551468 0.112863
				CHANNELS 3 Zrotation Yrotation Xrotation
				JOINT LeftFoot
				{
					OFFSET 0.438033 -32.635670 -3.012641
					CHANNELS 3 Zrotation Yrotation Xrotation
					JOINT LeftToeBase
					{
						OFFSET 0.970169 -13.225353 11.864223
						CHANNELS 3 Zrotation Yrotation Xrotation
						End Site
						{
							OFFSET 0.000000 0.000000 0.000000
						}
					}
				}
			}
		}
	}
	JOINT RightUpLeg_virtual
	{
		OFFSET 0.000000 0.000000 0.000000
		CHANNELS 3 Zrotation Yrotation Xrotation
		JOINT RightUpLeg
		{
			OFFSET -8.479694 -4.795517 -0.379053
			CHANNELS 3 Zrotation Yrotation Xrotation
			JOINT RightLeg
			{
				OFFSET -0.484100 -32.551483 0.112903
				CHANNELS 3 Zrotation Yrotation Xrotation
				JOINT RightFoot
				{
					OFFSET -0.438985 -32.635651 -3.012681
					CHANNELS 3 Zrotation Yrotation Xrotation
					JOINT RightToeBase
					{
						OFFSET -0.970169 -13.225354 11.864223
						CHANNELS 3 Zrotation Yrotation Xrotation
						End Site
						{
							OFFSET 0.000000 0.000000 0.000000
						}
					}
				}
			}
		}
	}
	JOINT Spine_virtual
	{
		OFFSET 0.000000 0.000000 0.000000
		CHANNELS 3 Zrotation Yrotation Xrotation
		JOINT Spine
		{
			OFFSET 0.000000 7.722015 1.166203
			CHANNELS 3 Zrotation Yrotation Xrotation
			JOINT Spine1
			{
				OFFSET 0.000000 12.024086 0.248766
				CHANNELS 3 Zrotation Yrotation Xrotation
				JOINT Spine2
				{
					OFFSET -0.000000 11.503036 -0.491240
					CHANNELS 3 Zrotation Yrotation Xrotation
					JOINT Neck_virtual
					{
						OFFSET 0.000000 0.000000 0.000000
						CHANNELS 3 Zrotation Yrotation Xrotation
						JOINT Neck
						{
							OFFSET 0.000000 18.430687 -3.123054
							CHANNELS 3 Zrotation Yrotation Xrotation
							JOINT Head
							{
								OFFSET -0.000000 9.051071 1.034021
								CHANNELS 3 Zrotation Yrotation Xrotation
								End Site
								{
									OFFSET 0.000000 0.000000 0.000000
								}
							}
						}
					}
					JOINT LeftShoulder_virtual
					{
						OFFSET 0.000000 0.000000 0.000000
						CHANNELS 3 Zrotation Yrotation Xrotation
						JOINT LeftShoulder
						{
							OFFSET 6.197824 13.665230 -4.064723
							CHANNELS 3 Zrotation Yrotation Xrotation
							JOINT LeftArm
							{
								OFFSET 7.778132 -0.187073 -1.709282
								CHANNELS 3 Zrotation Yrotation Xrotation
								JOINT LeftForeArm
								{
									OFFSET 21.954697 0.000000 -2.041093
									CHANNELS 3 Zrotation Yrotation Xrotation
									JOINT LeftHand
									{
										OFFSET 22.992908 0.000000 -0.870901
										CHANNELS 3 Zrotation Yrotation Xrotation
										End Site
										{
											OFFSET 0.000000 0.000000 0.000000
										}
									}
								}
							}
						}
					}
					JOINT RightShoulder_virtual
					{
						OFFSET 0.000000 0.000000 0.000000
						CHANNELS 3 Zrotation Yrotation Xrotation
						JOINT RightShoulder
						{
							OFFSET -6.197824 13.665230 -4.064723
							CHANNELS 3 Zrotation Yrotation Xrotation
							JOINT RightArm
							{
								OFFSET -7.778132 -0.187073 -1.709282
								CHANNELS 3 Zrotation Yrotation Xrotation
								JOINT RightForeArm
								{
									OFFSET -21.954697 0.000000 -2.041093
									CHANNELS 3 Zrotation Yrotation Xrotation
									JOINT RightHand
									{
										OFFSET -22.992908 0.000000 -0.870901
										CHANNELS 3 Zrotation Yrotation Xrotation
										End Site
										{
											OFFSET 0.000000 0.000000 0.000000
										}
									}
								}
							}
						}
					}
				}
			}
		}
	}
}
MOTION
Frames: 7
Frame Time: 0.033333
-94.017052 82.548332 -21.174246 -0.156379 9.071887 0.004653 -2.659729 -4.234080 15.809948 3.196750 6.735802 -33.547854 3.456633 -6.990298 58.662091 -9.488453 -10.529350 -1.803196 0.000000 0.000000 0.000000 0.775971 -3.961882 14.957611 -6.519248 2.419329 -29.843753 0.427603 6.306712 36.757790 8.740129 7.025367 -2.291195 0.000000 0.000000 0.000000 1.558660 0.775016 2.571259 2.709631 3.172738 -6.195220 -1.832323 -1.088803 11.055827 -0.067646 -0.051018 0.031607 -2.276291 0.752116 13.287435 8.576503 -8.644614 1.576096 0.000000 0.000000 0.000000 -0.352186 1.126451 10.497665 3.468340 -1.405155 -2.383959 -89.081301 -3.053044 14.878010 14.301151 -17.302703 21.050947 0.000000 0.000000 0.000000 -5.534097 3.327200 8.643495 6.805527 0.788240 0.226148 72.452816 13.402219 19.578488 -165.055223 57.703446 -164.750091 0.000000 0.000000 0.000000 
-94.382324 82.652718 -20.448929 -0.184868 9.935876 -0.061205 -2.645205 -4.170527 16.150816 3.626967 7.724999 -35.014234 3.526118 -6.460433 55.121689 -8.882554 -10.303086 -1.757872 0.000000 0.000000 0.000000 0.843107 -3.993986 15.155688 -6.172050 1.888557 -28.500622 0.683500 5.995896 35.539872 8.620921 6.291726 -3.110360 0.000000 0.000000 0.000000 1.533172 0.874085 2.964615 3.006884 3.123564 -6.255652 -1.812709 -1.156618 10.834954 -0.070591 0.061193 -0.007501 -2.253934 0.673724 12.877082 7.193390 -7.765289 2.333402 0.000000 0.000000 0.000000 -0.251275 1.026789 10.115813 3.047512 -1.134537 -2.414507 -89.188269 -2.572054 15.241608 14.727027 -16.876661 20.848365 0.000000 0.000000 0.000000 -5.451600 3.239499 8.276102 6.781026 0.556671 -0.308755 71.820348 15.194285 20.133540 -165.459789 58.485872 -164.805443 0.000000 0.000000 0.000000 
-94.671135 82.742111 -19.759565 -0.110415 10.855419 0.001445 -2.862664 -4.020856 16.462368 3.551719 8.861381 -35.824667 4.039517 -5.877914 49.212391 -8.464945 -10.350010 -1.752705 0.000000 0.000000 0.000000 0.953801 -4.058797 15.390653 -6.023119 0.812675 -27.416316 1.094403 5.864605 34.435953 8.707972 5.546172 -3.874218 0.000000 0.000000 0.000000 1.461452 1.119300 3.337486 3.278533 3.078068 -6.458898 -1.750204 -1.249287 10.647847 -0.025429 -0.042137 0.039645 -2.216104 0.436956 12.521943 5.898256 -6.849818 3.083623 0.000000 0.000000 0.000000 -0.176512 0.859915 9.755969 2.758808 -0.824030 -2.431750 -89.336614 -2.247056 15.445457 15.039472 -16.308284 20.446337 0.000000 0.000000 0.000000 -5.337644 3.072476 7.949092 6.991552 0.299055 -0.541056 70.954935 16.828761 20.041351 -166.246640 58.901789 -165.163058 0.000000 0.000000 0.000000 
-94.883141 82.785049 -19.083654 -0.130586 11.398589 -0.058059 -3.013811 -3.607583 16.848890 2.990382 10.100259 -36.222856 4.469883 -5.118083 42.106614 -8.028844 -10.518647 -1.904998 0.000000 0.000000 0.000000 0.955021 -4.317028 15.787028 -5.656081 -0.155671 -26.571215 1.340957 5.960815 33.517862 9.034111 4.997498 -4.446195 0.000000 0.000000 0.000000 1.453279 1.486717 3.856951 3.617304 3.149516 -6.721723 -1.672218 -1.290147 10.531058 -0.040803 0.012161 -0.033512 -2.108468 0.291445 12.295998 4.814738 -6.001881 3.798607 0.000000 0.000000 0.000000 -0.037047 0.648842 9.506540 2.535756 -0.421286 -2.435064 -89.604207 -2.032348 15.569363 15.202751 -15.679527 19.814596 0.000000 0.000000 0.000000 -5.202358 2.910097 7.760450 7.281427 -0.065624 -0.570378 70.126030 18.250703 19.363451 -167.148908 59.226565 -165.614793 0.000000 0.000000 0.000000 
-94.930199 82.791786 -18.421780 -0.223264 11.860870 -0.104531 -3.151725 -3.088966 17.230791 1.890985 11.516245 -36.668075 4.890869 -4.358731 35.173357 -7.596764 -10.973056 -2.177203 0.000000 0.000000 0.000000 1.394801 -4.229005 16.241126 -5.612305 -2.198217 -25.762816 1.548567 6.271898 32.475524 9.781342 4.964658 -4.884496 0.000000 0.000000 0.000000 1.542411 1.832589 4.340802 4.002881 3.249206 -7.017855 -1.610695 -1.386155 10.463309 -0.068476 0.032527 -0.029008 -2.056849 0.177244 12.120897 3.907037 -5.241974 4.510630 0.000000 0.000000 0.000000 -0.006321 0.541746 9.311628 2.366519 -0.226581 -2.399971 -89.874996 -2.036882 15.630666 15.286370 -15.010386 19.314243 0.000000 0.000000 0.000000 -5.115877 2.711526 7.577420 7.671458 -0.451043 -0.286801 69.591295 19.613151 18.243346 -167.783679 59.530003 -165.896689 0.000000 0.000000 0.000000 
-94.792763 82.764877 -17.776754 -0.223264 12.495178 -0.313970 -3.198401 -2.520323 17.708481 0.181196 12.880931 -37.218483 5.228666 -3.667771 29.460167 -7.389090 -11.336648 -2.453710 0.000000 0.000000 0.000000 1.523740 -3.845234 16.934891 -5.553283 -4.204498 -24.920903 1.726635 6.040616 31.381164 10.666136 5.192041 -5.238217 0.000000 0.000000 0.000000 1.667265 2.101591 4.974607 4.366059 3.382777 -7.269128 -1.656462 -1.462307 10.407123 -0.026169 0.043706 0.000803 -2.091545 -0.000022 11.970238 3.095872 -4.488782 5.339971 0.000000 0.000000 0.000000 0.011771 0.512251 9.142421 2.227357 0.063239 -2.348311 -90.057151 -2.269371 15.804436 15.232346 -14.350550 19.080154 0.000000 0.000000 0.000000 -5.110751 2.560389 7.399786 7.879573 -0.783940 0.013075 69.433340 20.845391 17.068491 -168.066695 59.993130 -165.948598 0.000000 0.000000 0.000000 
-94.495255 82.718002 -17.069813 -0.199574 13.156932 -0.307379 -3.279689 -2.261981 18.176226 -1.630410 14.263073 -38.029513 5.574082 -2.676118 25.539355 -7.089608 -11.847031 -2.874414 0.000000 0.000000 0.000000 1.540548 -3.598962 17.657188 -5.678446 -5.885455 -24.125335 1.805525 5.842388 30.039350 11.256128 5.398439 -5.665270 0.000000 0.000000 0.000000 1.814907 2.361606 5.390617 4.620167 3.542475 -7.609206 -1.625931 -1.524721 10.435730 -0.020136 0.063335 -0.051200 -2.067014 0.076183 11.921811 2.509230 -3.982365 6.084038 0.000000 0.000000 0.000000 -0.033952 0.410306 9.006374 2.191452 0.184818 -2.286858 -90.235726 -2.680705 16.093695 15.051457 -13.768831 18.523355 0.000000 0.000000 0.000000 -5.075866 2.459006 7.341408 7.970124 -1.159411 0.572190 69.752726 22.199541 16.061987 -167.853265 60.670726 -165.648275 0.000000 0.000000 0.000000 
